<svg version="1.1" id="Layer_1" xmlns="http://www.w3.org/2000/svg" xmlns:xlink="http://www.w3.org/1999/xlink" x="0px" y="0px"
	 width="100%" viewBox="0 0 1090 1090" enable-background="new 0 0 1090 1090" xml:space="preserve">
<path fill="transparent" opacity="1.000000" stroke="none" 
	d="
M606.000000,1091.000000 
	C404.023041,1091.000000 202.546097,1091.000000 1.034572,1091.000000 
	C1.034572,727.731262 1.034572,364.462555 1.034572,1.096910 
	C364.227142,1.096910 727.454346,1.096910 1090.840820,1.096910 
	C1090.840820,364.333282 1090.840820,727.666626 1090.840820,1091.000000 
	C929.462158,1091.000000 767.981079,1091.000000 606.000000,1091.000000 
M723.972717,197.695404 
	C715.527100,182.524246 706.476440,167.647324 698.895020,152.055969 
	C695.186829,144.430023 693.722717,135.561417 692.223938,127.081863 
	C691.559509,123.322647 690.613220,121.473228 686.925415,120.982269 
	C669.692444,118.688011 652.516846,115.821770 635.224792,114.156319 
	C620.460754,112.734367 605.566162,112.104546 590.729675,112.109032 
	C551.481506,112.120903 512.233521,112.666771 472.985443,113.000137 
	C472.485565,113.004387 471.982849,112.975555 471.486206,113.017937 
	C455.982300,114.341019 440.456116,115.455040 424.985382,117.092812 
	C417.462128,117.889236 409.947327,119.305305 402.638245,121.234604 
	C400.614410,121.768806 398.550049,124.925217 397.889099,127.269066 
	C396.510468,132.157700 397.133209,137.818527 395.025940,142.256180 
	C387.740051,157.599152 379.890137,172.692535 371.742096,187.600662 
	C367.228668,195.858719 362.072052,203.580872 362.906189,213.686325 
	C363.414124,219.839752 362.987122,226.069336 363.001892,232.264664 
	C363.332764,371.001312 363.747009,509.737823 363.971710,648.474670 
	C364.120941,740.630554 363.957458,832.786865 364.128052,924.942688 
	C364.136414,929.457825 365.528778,934.147949 367.122742,938.442505 
	C369.728943,945.464050 376.699524,944.350708 382.137299,944.831055 
	C392.503906,945.746643 402.956299,945.778320 413.376923,945.976562 
	C434.958832,946.387146 456.543732,946.961304 478.126556,946.928162 
	C507.542847,946.882935 536.959167,946.388428 566.373779,945.970337 
	C576.794434,945.822266 587.209290,945.299744 597.628479,945.007202 
	C622.130188,944.319275 646.632019,943.634338 671.135498,943.011719 
	C686.717896,942.615723 702.307007,942.438416 717.882263,941.867432 
	C719.833923,941.795959 722.624146,940.375793 723.438171,938.773743 
	C724.920471,935.856628 725.864807,932.341614 725.901245,929.063416 
	C726.382751,885.703552 726.931641,842.341675 726.954529,798.980042 
	C727.058411,602.335999 727.015381,405.691772 726.877075,209.047760 
	C726.874634,205.525345 725.031677,202.004257 723.972717,197.695404 
z"/>
<path fill="#FFFFFF" opacity="1.000000" stroke="none" 
	d="
M724.010132,198.088989 
	C725.031677,202.004257 726.874634,205.525345 726.877075,209.047760 
	C727.015381,405.691772 727.058411,602.335999 726.954529,798.980042 
	C726.931641,842.341675 726.382751,885.703552 725.901245,929.063416 
	C725.864807,932.341614 724.920471,935.856628 723.438171,938.773743 
	C722.624146,940.375793 719.833923,941.795959 717.882263,941.867432 
	C702.307007,942.438416 686.717896,942.615723 671.135498,943.011719 
	C646.632019,943.634338 622.130188,944.319275 597.628479,945.007202 
	C587.209290,945.299744 576.794434,945.822266 566.373779,945.970337 
	C536.959167,946.388428 507.542847,946.882935 478.126556,946.928162 
	C456.543732,946.961304 434.958832,946.387146 413.376923,945.976562 
	C402.956299,945.778320 392.503906,945.746643 382.137299,944.831055 
	C376.699524,944.350708 369.728943,945.464050 367.122742,938.442505 
	C365.528778,934.147949 364.136414,929.457825 364.128052,924.942688 
	C363.957458,832.786865 364.120941,740.630554 363.971710,648.474670 
	C363.747009,509.737823 363.332764,371.001312 363.001892,232.264664 
	C362.987122,226.069336 363.414124,219.839752 362.906189,213.686325 
	C362.072052,203.580872 367.228668,195.858719 371.742096,187.600662 
	C379.890137,172.692535 387.740051,157.599152 395.025940,142.256180 
	C397.133209,137.818527 396.510468,132.157700 397.889099,127.269066 
	C398.550049,124.925217 400.614410,121.768806 402.638245,121.234604 
	C409.947327,119.305305 417.462128,117.889236 424.985382,117.092812 
	C440.456116,115.455040 455.982300,114.341019 471.486206,113.017937 
	C471.982849,112.975555 472.485565,113.004387 472.985443,113.000137 
	C512.233521,112.666771 551.481506,112.120903 590.729675,112.109032 
	C605.566162,112.104546 620.460754,112.734367 635.224792,114.156319 
	C652.516846,115.821770 669.692444,118.688011 686.925415,120.982269 
	C690.613220,121.473228 691.559509,123.322647 692.223938,127.081863 
	C693.722717,135.561417 695.186829,144.430023 698.895020,152.055969 
	C706.476440,167.647324 715.527100,182.524246 724.010132,198.088989 
z"/>
</svg>